<svg id="eQw4zB7ZyLv1" xmlns="http://www.w3.org/2000/svg" xmlns:xlink="http://www.w3.org/1999/xlink" viewBox="0 0 300 300" shape-rendering="geometricPrecision" text-rendering="geometricPrecision"><rect width="254.840248" height="254.840248" rx="0" ry="0" transform="matrix(.813624 0 0 0.813623 46.327929 46.328056)" fill="none" stroke="#000" stroke-width="20"/><rect width="49.36256" height="49.36256" rx="0" ry="0" transform="matrix(.730833-.682556 0.682556 0.730833 19.922495 243.041471)" fill="#fcfcfc" stroke-width="0"/><rect width="49.36256" height="49.36256" rx="0" ry="0" transform="matrix(.730833-.682556 0.682556 0.730833 207.901175 56.927621)" fill="#fcfcfc" stroke-width="0"/><rect width="277.730091" height="22.126848" rx="0" ry="0" transform="matrix(.879286-.873055 0.503238 0.506829 22.330435 265.629611)" fill="#fd1111" stroke-width="0"/><rect width="45.808383" height="9.88024" rx="0" ry="0" transform="matrix(1.470588 0 0 1 215.515139 18.294794)" fill="#fd1111" stroke-width="0"/><rect width="45.808383" height="9.88024" rx="0" ry="0" transform="matrix(1.240941 0 0 1 16.941288 269.237038)" fill="#fd1111" stroke-width="0"/><rect width="10.778443" height="41.317365" rx="0" ry="0" transform="matrix(1 0 0 1.322609 272.101955 21.510357)" fill="#fd1111" stroke-width="0"/><rect width="10.778443" height="41.317365" rx="0" ry="0" transform="matrix(1 0 0 1.27526 16.941288 224.153751)" fill="#fd1111" stroke-width="0"/></svg>
