<svg id="eyXYPFENu5W1" xmlns="http://www.w3.org/2000/svg" xmlns:xlink="http://www.w3.org/1999/xlink" viewBox="0 0 600 600" shape-rendering="geometricPrecision" text-rendering="geometricPrecision"><rect width="107.784431" height="95.93983" rx="0" ry="0" transform="matrix(1.000007 0 0 1.000001 96.217285 195.958412)" fill="#f64f20" stroke-width="0"/><rect width="107.784431" height="95.93983" rx="0" ry="0" transform="matrix(1.000007 0 0 1.000001 311.787655 100.018486)" fill="#f64f20" stroke-width="0"/><rect width="107.784431" height="95.93983" rx="0" ry="0" transform="matrix(1.000007 0 0 1.000001 204.00247 382.982088)" fill="#f64f20" stroke-width="0"/><rect width="107.784431" height="95.93983" rx="0" ry="0" transform="matrix(1.000007 0 0 1.000001 419.57284 287.042162)" fill="#f64f20" stroke-width="0"/><rect width="107.784431" height="95.93983" rx="0" ry="0" transform="matrix(1.000007 0 0 1.000001 204.00247 100.018486)" fill="#fb9714" stroke-width="0"/><rect width="107.784431" height="95.93983" rx="0" ry="0" transform="matrix(1.000007 0 0 1.000001 419.57284 191.102236)" fill="#fb9714" stroke-width="0"/><rect width="107.784431" height="95.93983" rx="0" ry="0" transform="matrix(1.000007 0 0 1.000001 311.787655 287.042162)" fill="#fb9714" stroke-width="0"/><rect width="107.784431" height="95.93983" rx="0" ry="0" transform="matrix(1.000007 0 0 1.000001 96.217285 287.042162)" fill="#fb9714" stroke-width="0"/><rect width="107.784431" height="95.93983" rx="0" ry="0" transform="matrix(1.000007 0 0 1.000001 311.787655 191.102236)" fill="#fbe514" stroke-width="0"/><rect width="107.784431" height="95.93983" rx="0" ry="0" transform="matrix(1.000007 0 0 1.000001 311.787663 382.982088)" fill="#fbe514" stroke-width="0"/><rect width="107.784431" height="95.93983" rx="0" ry="0" transform="matrix(1.000007 0 0 1.000001 96.217285 382.982088)" fill="#fbe514" stroke-width="0"/><rect width="107.784431" height="95.93983" rx="0" ry="0" transform="matrix(1.000007 0 0 1.000001 204.00247 195.958412)" fill="#fbe514" stroke-width="0"/><ellipse rx="106.886227" ry="106.886227" transform="matrix(1.184874 0 0 1.184874 285.512645 322.605123)" stroke="#000" stroke-width="9"/><rect width="97.005989" height="37.724551" rx="9" ry="9" transform="matrix(.754243 0.552669-.633508 0.864565 338.993271 169.152288)" fill="#000307" stroke-width="0"/><line x1="-12.316819" y1="16.169252" x2="12.316819" y2="-16.169252" transform="matrix(1.697322 0 0 1.78836 373.915135 198.068731)" fill="none" stroke="#000" stroke-width="9"/><line x1="-23.353294" y1="0" x2="23.353294" y2="0" transform="translate(457.30173 169.152288)" fill="none" stroke="#000" stroke-width="7"/><line x1="-23.353294" y1="0" x2="23.353294" y2="0" transform="matrix(-.004032-.999992 0.999992-.004032 388.354732 105.837798)" fill="none" stroke="#000" stroke-width="7"/><line x1="-23.353294" y1="0" x2="23.353294" y2="0" transform="matrix(.61557-.788082 0.788082 0.61557 433.94844 124.242107)" fill="none" stroke="#000" stroke-width="7"/></svg>