<svg id="eDd3h4vGSON1" xmlns="http://www.w3.org/2000/svg" xmlns:xlink="http://www.w3.org/1999/xlink" viewBox="0 0 600 600" shape-rendering="geometricPrecision" text-rendering="geometricPrecision"><ellipse rx="247.315951" ry="247.315951" transform="matrix(.771039 0 0 0.771039 300 300)" fill="none" stroke="#000" stroke-width="10"/><line x1="0" y1="-13.803681" x2="0" y2="13.803681" transform="translate(300 134.389691)" fill="none" stroke="#3f5787" stroke-width="3"/><line x1="0" y1="-13.803681" x2="0" y2="13.803681" transform="translate(300 462.193251)" fill="none" stroke="#3f5787" stroke-width="3"/><line x1="0" y1="-13.803681" x2="0" y2="13.803681" transform="matrix(0 1-1 0 464.457189 300.000002)" fill="none" stroke="#3f5787" stroke-width="3"/><line x1="0" y1="-13.803681" x2="0" y2="13.803681" transform="matrix(0 1-1 0 136.064358 300.000002)" fill="none" stroke="#3f5787" stroke-width="3"/><line x1="0" y1="-13.803681" x2="0" y2="13.803681" transform="matrix(-.707107 0.707107-.707107-.707107 407.725394 417.331288)" fill="none" stroke="#3f5787" stroke-width="3"/><line x1="0" y1="-13.803681" x2="0" y2="13.803681" transform="matrix(-.707107 0.707107-.707107-.707107 175.140925 192.659619)" fill="none" stroke="#3f5787" stroke-width="3"/><line x1="0" y1="-13.803681" x2="0" y2="13.803681" transform="matrix(.707107 0.707107-.707107 0.707107 184.901601 417.331288)" fill="none" stroke="#3f5787" stroke-width="3"/><line x1="0" y1="-13.803681" x2="0" y2="13.803681" transform="matrix(.707107 0.707107-.707107 0.707107 418.041474 185.757779)" fill="none" stroke="#3f5787" stroke-width="3"/><ellipse rx="14.953988" ry="14.953988" transform="translate(300 300)" fill="#4e4e4e" stroke-width="0"/><line x1="0" y1="-77.530674" x2="0" y2="77.530675" transform="matrix(1 0 0 0.703263 300 230.521557)" fill="none" stroke="#d80e19" stroke-width="3"/><line x1="0" y1="-77.530674" x2="0" y2="77.530675" transform="matrix(0 1-.354598 0 342.44621 300.000001)" fill="none" stroke="#d80e19" stroke-width="3"/><rect width="122.507667" height="62.116564" rx="20" ry="20" transform="matrix(.550769 0.444268-.396425 0.491458 410.787433 98.56455)" stroke-width="0"/></svg>
